<svg xmlns="http://www.w3.org/2000/svg" viewBox="0 0 633.52 224.8"><defs><style></style></defs><g id="Layer_2" data-name="Layer 2"><g id="Layer_1-2" data-name="Layer 1"><path class="cls-1" d="M0,0H156.59A160.17,160.17,0,0,1,316.76,160.17V224.8a0,0,0,0,1,0,0H151.47A151.47,151.47,0,0,1,0,73.33V0A0,0,0,0,1,0,0Z"/><path class="cls-1" d="M468.23,0H633.52a0,0,0,0,1,0,0V64.63A160.17,160.17,0,0,1,473.35,224.8H316.76a0,0,0,0,1,0,0V151.47A151.47,151.47,0,0,1,468.23,0Z" transform="translate(950.27 224.8) rotate(-180)"/></g></g></svg>